<?xml version="1.0" encoding="UTF-8" standalone="no"?>
<!-- Created with Inkscape (http://www.inkscape.org/) -->

<svg
   width="1656.9998"
   height="486.99957"
   viewBox="0 0 438.41452 128.85198"
   version="1.1"
   id="svg5"
   sodipodi:docname="tools-aloneink.svg"
   inkscape:version="1.1.2 (b8e25be833, 2022-02-05)"
   inkscape:export-filename="C:\mystuff\Node\Twitch-Tools\public\assets\tt-navTESTSSS.png"
   inkscape:export-xdpi="51.843666"
   inkscape:export-ydpi="51.843666"
   xmlns:inkscape="http://www.inkscape.org/namespaces/inkscape"
   xmlns:sodipodi="http://sodipodi.sourceforge.net/DTD/sodipodi-0.dtd"
   xmlns="http://www.w3.org/2000/svg"
   xmlns:svg="http://www.w3.org/2000/svg"
   xmlns:rdf="http://www.w3.org/1999/02/22-rdf-syntax-ns#"
   xmlns:cc="http://creativecommons.org/ns#"
   xmlns:dc="http://purl.org/dc/elements/1.1/">
  <sodipodi:namedview
     id="namedview7"
     pagecolor="#ffffff"
     bordercolor="#666666"
     borderopacity="1.0"
     inkscape:pageshadow="2"
     inkscape:pageopacity="0"
     inkscape:pagecheckerboard="false"
     inkscape:document-units="mm"
     showgrid="false"
     inkscape:zoom="0.16"
     inkscape:cx="81.25"
     inkscape:cy="384.375"
     inkscape:window-width="1920"
     inkscape:window-height="1027"
     inkscape:window-x="-8"
     inkscape:window-y="22"
     inkscape:window-maximized="1"
     inkscape:current-layer="svg5"
     units="px"
     fit-margin-top="0"
     fit-margin-left="0"
     fit-margin-right="0"
     fit-margin-bottom="0" />
  <title
     id="title2475">C:\mystuff\Node</title>
  <defs
     id="defs2" />
  <path
     id="path5686"
     style="fill:#ffffff;stroke-width:0.10615;paint-order:stroke fill markers"
     d="m 399.464,23.802915 c -9.09058,0.01481 -18.18116,4.01e-4 -27.27174,0.0064 -2.62705,-3.16e-4 -5.2541,0.0056 -7.88117,0.0091 -6.31524,5.749967 -12.63214,11.494169 -18.95182,17.239257 -0.003,9.930487 -0.007,19.860974 -0.0103,29.791464 7.80973,0.06644 15.61978,0.01253 23.42967,0.02997 h 14.60778 c 0.23249,0.202885 0.5507,0.309382 0.74208,0.553455 -0.0733,0.375428 -0.017,0.766903 -0.0346,1.149282 v 8.123536 c -0.19542,0.213696 -0.35761,0.54986 -0.67853,0.574125 -0.37563,-0.09189 -0.76925,-0.0293 -1.15371,-0.04754 h -36.8817 c -0.0677,6.870903 -0.0119,13.742156 -0.032,20.613216 7.64194,0.0623 15.28416,0.0109 22.92623,0.0226 8.04881,-0.0184 16.0981,0.0262 24.14635,-0.0924 1.58967,-1.06751 2.93404,-2.440697 4.36819,-3.697973 0.43958,-0.374213 0.89723,-0.804844 1.34218,-1.202439 4.50707,-4.074948 9.0052,-8.158262 13.49412,-12.253071 0.004,-9.930315 0.008,-19.86063 0.0114,-29.790945 -7.75412,-0.06621 -15.50853,-0.01267 -23.26275,-0.03049 h -15.12509 c -0.21387,-0.215765 -0.56716,-0.440155 -0.49461,-0.790035 0.0699,-0.348853 0.0134,-0.712592 0.0316,-1.067528 v -7.70206 c 0.21449,-0.255384 0.31215,-0.606817 0.56949,-0.82114 0.40076,0.06638 0.81502,0.01364 1.22142,0.03043 12.34315,-6.61e-4 24.68631,-0.0014 37.02947,-0.002 0.067,-6.871078 0.0127,-13.742495 0.0315,-20.613728 -4.05773,-0.02998 -8.11557,-0.03554 -12.1734,-0.03152 z"
     sodipodi:nodetypes="sccccccccccccccccccccccccccccss" />
  <path
     id="path5450"
     style="fill:#ffffff;stroke-width:0.10615;paint-order:stroke fill markers"
     d="m 267.89063,23.803431 c -0.40013,0.0065 -0.79934,0.03563 -1.19888,0.05581 -3e-5,25.995313 0,51.990625 0,77.985939 7.79115,0.0656 15.58263,0.0121 23.37395,0.03 h 38.21297 c 0.0685,-7.952801 0.009,-15.906062 0.0323,-23.858894 -0.003,-0.414769 -0.0372,-0.828358 -0.0582,-1.242415 -11.18483,-2e-6 -22.36967,0 -33.55453,0 -0.20992,-0.211981 -0.54737,-0.424256 -0.50126,-0.764812 0.0807,-0.347393 0.0179,-0.711714 0.0377,-1.066292 V 23.834466 c -8.15689,-0.06308 -16.31407,-0.0158 -24.47107,-0.02745 -0.62436,0.007 -1.2487,-0.01412 -1.87306,-0.0036 z"
     sodipodi:nodetypes="scccccccccccss" />
  <path
     id="path5214"
     style="fill:#ffffff;stroke-width:0.10615;paint-order:stroke fill markers"
     d="m 169.00313,23.960011 c -0.13001,0.102216 -0.22521,0.218836 -0.18139,0.393051 v 77.492118 c 7.791,0.0656 15.58231,0.0121 23.37345,0.03 h 62.30916 c 0.0664,-7.817637 0.0127,-15.635572 0.0299,-23.453348 -0.002,-12.427148 0.008,-24.854302 -0.008,-37.281445 -6.35161,-5.778875 -12.69698,-11.56426 -19.05516,-17.335375 h -66.31276 c -0.0517,0.05168 -0.10334,0.103353 -0.15502,0.155029 z m 27.67428,24.900806 c 0.35685,0.09182 0.73414,0.02533 1.10038,0.04547 h 28.75153 c 0.2817,0.107452 0.45572,0.407792 0.38999,0.705268 -0.0709,0.465159 -0.0162,0.941006 -0.0334,1.410779 v 25.495705 c -0.36021,0.259038 -0.82172,0.330409 -1.25265,0.255799 -9.67245,-2e-6 -19.3449,0 -29.01735,0 -0.23905,-0.442174 -0.47765,-0.941676 -0.35759,-1.456864 0.001,-8.551389 -0.003,-17.104082 0.002,-25.654661 0.14856,-0.260533 0.2083,-0.576718 0.40772,-0.802016 z"
     sodipodi:nodetypes="scccccccccscccccccccccc" />
  <path
     id="path4978"
     style="fill:#ffffff;stroke-width:0.10615;paint-order:stroke fill markers"
     d="m 70.81428,23.960011 c -0.12999,0.102216 -0.22522,0.218836 -0.18138,0.393051 v 77.492118 c 7.79119,0.0656 15.58267,0.0121 23.37398,0.03 h 62.52105 c 0.0664,-7.773539 0.012,-15.547378 0.0293,-23.321056 -0.003,-12.47004 0.008,-24.940085 -0.009,-37.41012 -6.35407,-5.780399 -12.70259,-11.566522 -19.06341,-17.338992 H 70.96949 c -0.0517,0.05168 -0.10337,0.103353 -0.15504,0.155029 z m 28.39725,24.912691 c 0.53242,0.06987 1.07344,0.01731 1.6097,0.03359 h 27.7699 c 0.32157,0.249026 0.41685,0.687607 0.31832,1.069186 v 26.479521 c -0.24837,0.321421 -0.68728,0.418605 -1.06868,0.318844 -9.71137,0 -19.42275,-2e-6 -29.13412,0 -0.32152,-0.248481 -0.41783,-0.686845 -0.31885,-1.068152 V 49.22462 c 0.19952,-0.243567 0.508,-0.382402 0.82373,-0.351918 z"
     sodipodi:nodetypes="ccccccccccccccccccccc" />
  <path
     id="path8614"
     style="fill:#ffffff;stroke-width:0.150119;paint-order:stroke fill markers"
     d="m 27.89288,1.7923722 c -0.64415,0.018913 -1.28873,0.064952 -1.9327,0.022221 H 2.30476 C 2.16403,1.9736425 1.97213,2.1115004 1.86243,2.2834018 c 0.004,27.4377402 0.008,54.8754782 0.0124,82.3132172 6.23851,5.820084 12.60364,11.502149 18.89292,17.267681 10.91388,0.0853 21.82815,0.0239 32.74219,0.0522 0.17333,-0.51982 0.29641,-1.05928 0.28794,-1.61029 0.003,-0.720195 -0.0753,-1.440142 -0.0229,-2.159917 v -21.1554 c -0.5271,-0.179761 -1.07621,-0.299321 -1.6357,-0.290135 -0.72017,0.0024 -1.44013,0.07317 -2.15993,0.02348 -6.65832,-3e-6 -13.31666,-3e-6 -19.97501,0 -0.35044,-0.288436 -0.2781,-0.794755 -0.26612,-1.197345 0.0429,-0.463717 0.0609,-0.930402 0.0186,-1.394124 0.0453,-8.262152 -0.10163,-16.525828 0.10134,-24.786707 -0.0349,-0.120218 -0.01,-0.234148 0.13499,-0.177633 7.83791,-0.200459 15.67865,-0.04164 23.51783,-0.09677 0.17846,-0.530838 0.29803,-1.083206 0.28784,-1.645893 -0.002,-0.707266 -0.0745,-1.414341 -0.0238,-2.121215 V 23.997739 c -0.52821,-0.176984 -1.07725,-0.299181 -1.63726,-0.288615 -0.7188,4.38e-4 -1.43738,0.07505 -2.15578,0.02229 -6.67599,-0.04381 -13.35381,0.09972 -20.02824,-0.101613 -0.16222,0.06875 -0.11954,-0.172235 -0.13025,-0.266332 -0.0121,-1.468916 -0.0506,-2.938801 -0.0569,-4.408306 -0.0452,-5.625084 0.0172,-11.2503274 -0.0113,-16.8754677 -0.52739,-0.1774522 -1.076,-0.297685 -1.63517,-0.2880659 -0.0758,-7.391e-4 -0.15151,7.299e-4 -0.22723,7.45e-4 z"
     sodipodi:nodetypes="scccccccccccccccccccccccccccss" />
  <path
     style="fill:#6441a5;fill-opacity:1;stroke-width:0.264583"
     d="m 45.70753,127.85988 -1.12524,-0.99218 -7.27604,-6.60207 -7.27605,-6.60206 -5.96934,-5.83335 -5.96937,-5.83336 L 9.04597,93.794784 4.5e-4,85.592704 2.3e-4,43.113854 0,0.635 0.3175,0.3175 0.635,0 h 15.1077 15.10771 l 0.3175,0.3175 0.3175,0.3175 v 1.07292 1.07292 l 9.5925,9.58979 9.59247,9.589784 h 2.30446 2.30444 l 0.2739,0.51178 0.2739,0.51177 v 0.87931 0.87932 l 6.48229,6.47824 6.48229,6.47824 v -7.55183 -7.55183 l 0.3175,-0.3175 0.3175,-0.3175 34.54135,0.009 34.54136,0.009 8.73125,7.94906 8.73125,7.94906 1.25677,1.18806 1.25677,1.18806 v 0.97731 0.97731 l 4.10104,4.09464 4.10104,4.09464 v -13.70641 -13.70638 l 0.2739,-0.51178 0.2739,-0.51177 h 34.61273 34.61274 l 9.62951,8.74876 9.62951,8.74875 0.46302,0.54098 0.46302,0.54097 v 0.83389 0.83389 l 3.96177,3.95517 3.96179,3.95517 0.0731,-13.82397 0.0731,-13.82396 0.39687,-0.25078 0.39688,-0.25077 15.13808,-0.004 15.13808,-0.004 0.2739,0.51178 0.27389,0.51177 v 0.87834 0.87835 l 12.43542,12.4333 12.43542,12.43331 v 12.63491 12.63491 h 4.18041 4.18042 l 0.3175,0.3175 0.3175,0.3175 v 1.07359 1.07359 l 6.48229,6.47823 6.48229,6.47824 v -5.2235 -5.22348 l 0.52917,-0.52917 0.52917,-0.52917 4.03489,-0.003 4.0349,-0.003 -3.06504,-3.03977 -3.06501,-3.03977 h -1.08715 -1.08717 l -0.41188,-0.58804 -0.41188,-0.58804 v -15.66885 -15.66908 l 0.59531,-0.65583 0.59532,-0.65582 9.49391,-8.61935 9.49391,-8.61935 24.76963,0.004 24.76963,0.004 0.36687,0.23233 0.36684,0.23233 0.1265,1.31636 0.12647,1.31636 12.27281,12.27067 12.2728,12.27068 v 10.91513 10.91513 h -4.56123 -4.56123 l 4.56123,4.56682 4.56123,4.56682 v 15.34559 15.345606 l -9.70238,8.79486 -9.70237,8.79487 h -23.96427 -23.96424 l -8.00526,-8.00202 -8.00523,-8.00202 v 8.00202 8.00202 H 323.7814 292.49198 l -5.41911,-5.42396 -5.41912,-5.42395 h -0.20087 -0.20085 v 5.42395 5.42396 h -43.45551 -43.45551 l -5.4924,-5.48774 -5.49241,-5.48774 v 5.48774 5.48774 H 139.9 96.44383 l -7.87299,-7.8697 -7.87297,-7.8697 v 7.8697 7.8697 H 63.76535 46.83278 Z M 53.18124,89.296864 V 77.258334 H 41.4602 29.73916 l -0.3175,-0.3175 -0.3175,-0.3175 v -13.78479 -13.78479 l 0.3175,-0.3175 0.3175,-0.3175 H 41.4602 53.18124 V 36.380204 24.341664 H 41.4602 29.73916 l -0.3175,-0.3175 -0.3175,-0.3175 V 13.04395 2.38125 H 15.7427 2.38125 v 40.976644 40.97664 l 9.32656,8.4913 9.32656,8.491296 16.07344,0.009 16.07343,0.009 V 89.296594 Z m 102.92041,-17.92551 -0.003,-29.96406 -9.37482,-8.53281 -9.37469,-8.53282 H 104.26085 71.17256 v 38.49688 38.496866 h 42.46563 42.46562 l -0.003,-29.964056 z m -57.88832,5.56948 -0.3175,-0.3175 v -13.78479 -13.78479 l 0.3175,-0.3175 0.3175,-0.3175 h 15.10771 15.1077 l 0.3175,0.3175 0.3175,0.3175 v 13.78479 13.78479 l -0.3175,0.3175 -0.3175,0.3175 h -15.1077 -15.10771 z m 155.78666,-5.60624 v -30.00082 l -9.32656,-8.49199 -9.32656,-8.49199 -33.00677,-0.004 -33.00677,-0.004 v 38.49688 38.496866 h 42.33333 42.33333 z m -57.93443,5.41197 -0.2739,-0.51177 v -13.39625 -13.39625 l 0.2739,-0.51177 0.27389,-0.51177 15.13808,0.004 15.13809,0.004 0.39687,0.25088 0.39688,0.25088 v 13.90992 13.90993 l -0.39688,0.25088 -0.39687,0.25088 -15.13809,0.004 -15.13808,0.004 -0.27389,-0.51178 z m 131.75318,12.5503 v -12.03853 h -16.64986 -16.64983 l -0.41579,-0.41577 -0.41577,-0.41578 v -26.04256 -26.04256 h -13.22917 -13.22916 v 38.49688 38.496866 h 30.29479 30.29479 z m 74.01718,3.54136 9.32657,-8.47758 V 69.829284 55.297924 H 392.13138 373.1003 l -0.4158,-0.41578 -0.41576,-0.41577 v -4.68473 -4.68473 l 0.41187,-0.58804 0.41188,-0.58804 h 19.035 19.035 v -9.78958 -9.78959 l -23.34948,0.005 -23.34948,0.005 -9.32656,8.48506 -9.32656,8.48506 v 14.52878 14.52879 h 18.86714 18.86712 l 0.51361,0.37555 0.51358,0.37556 v 4.87544 4.87546 l -0.36311,0.43755 -0.36314,0.43753 h -19.01759 -19.01761 v 9.78958 9.789576 l 23.34947,-0.01 23.34948,-0.01 9.32656,-8.477566 z M 68.79166,83.211454 v -7.27603 h -6.21771 -6.21771 v 1.12241 1.12241 l 6.14945,6.15362 6.14945,6.15363 h 0.0683 0.0683 z"
     id="path928"
     sodipodi:nodetypes="ccccccccccccccccccccccccccccccccccccccccccccccccccccccccccccccccccccccccccccccccccccccccccccccccccccccccccccccccccccccccccccccccccccccccccccccccccccccccccccccccccccccccccccccccccccccccccccccccccccccccccccccccccccccccccccccccccccccccccccccccccccccccccccccccccccccccccccccccccccccccccccccccccccccc" />
  <metadata
     id="metadata2473">
    <rdf:RDF>
      <cc:Work
         rdf:about="">
        <dc:title>C:\mystuff\Node</dc:title>
      </cc:Work>
    </rdf:RDF>
  </metadata>
</svg>
