<?xml version="1.0" encoding="UTF-8" standalone="no"?>
<!-- Created with Inkscape (http://www.inkscape.org/) -->

<svg
   width="1827"
   height="486.99994"
   viewBox="0 0 483.39376 128.85208"
   version="1.1"
   id="svg5"
   xmlns="http://www.w3.org/2000/svg"
   xmlns:svg="http://www.w3.org/2000/svg"
   xmlns:rdf="http://www.w3.org/1999/02/22-rdf-syntax-ns#"
   xmlns:cc="http://creativecommons.org/ns#"
   xmlns:dc="http://purl.org/dc/elements/1.1/">
  <title
     id="title2475">C:\mystuff\Node</title>
  <defs
     id="defs2" />
  <path
     id="path2856"
     style="fill:#ffffff;stroke-width:0.10615;paint-order:stroke fill markers"
     d="m 2.3290568,1.9910929 c -0.1287037,0.102649 -0.2209272,0.220221 -0.1777669,0.393051 0.00646,27.4195831 -0.00294,54.8391711 0.01757,82.2587511 6.3196592,5.744475 12.6352681,11.493246 18.9631831,17.228405 10.946619,10e-4 21.893236,0.003 32.839855,0.005 0.06873,-7.935157 0.0086,-15.870779 0.03284,-23.805979 -5e-6,-0.432512 -0.03643,-0.863722 -0.05971,-1.295329 -8.002786,-1.51e-4 -16.005569,-3.49e-4 -24.008355,-5.18e-4 -0.265231,-0.452755 -0.460025,-0.982761 -0.348816,-1.512673 v -25.66293 c 0.142838,-0.246763 0.210175,-0.562128 0.443386,-0.74104 0.169159,-8.36e-4 0.328441,0.08175 0.502397,0.05012 7.812754,-1.67e-4 15.625508,-3.65e-4 23.438259,-5.13e-4 0.06873,-7.935158 0.0086,-15.87078 0.03284,-23.805979 -5e-6,-0.432513 -0.03643,-0.863722 -0.05971,-1.29533 h -24.03109 c -0.238572,-0.393163 -0.437825,-0.85507 -0.326081,-1.322503 -0.01659,-6.883602 0.03507,-13.7673845 -0.031,-20.6508327 H 2.4846079 l -0.155546,0.1586466 z" />
  <path
     id="path3092"
     style="fill:#ffffff;stroke-width:0.150119;paint-order:stroke fill markers"
     d="m 78.070169,23.837304 c -2.364737,0.0051 -4.729445,0.0163 -7.09414,0.03101 v 77.915136 c 23.202227,0.0612 46.404541,0.0102 69.606811,0.0275 5.50829,-6.9e-4 11.0166,0.004 16.52488,-0.007 6.33663,-5.761281 12.68567,-11.507997 19.01176,-17.280591 -0.0163,-20.228219 0.0331,-40.45649 -0.0274,-60.684667 -9.21821,0.01748 -18.43654,-0.03515 -27.65464,0.02997 -3.4e-4,17.557068 6.9e-4,35.115514 -5.2e-4,52.671721 -0.24246,0.364683 -0.73849,0.308761 -1.11991,0.30598 -1.25336,-0.03505 -2.50792,-0.0061 -3.76175,-0.01556 h -5.93783 c -0.43757,-0.935289 -0.30274,-1.995432 -0.30401,-2.995158 0.0131,-0.615598 -0.0617,-1.227968 -0.0415,-1.843812 -0.0835,-16.05094 0.0166,-32.102189 -0.0617,-48.153143 -9.10349,0.01747 -18.2071,-0.03513 -27.31048,0.02997 -0.0702,17.537603 -0.14057,35.075207 -0.21084,52.612809 -0.49621,0.411731 -1.18466,0.343133 -1.78663,0.331967 -0.47143,-0.03242 -0.94289,-0.0062 -1.41349,0.01296 -2.49672,0.0037 -4.99345,0.0052 -7.490183,0.0044 -0.332623,-0.434443 -0.767238,-0.916943 -0.682646,-1.506884 0.08611,-0.387049 0.02196,-0.789803 0.04133,-1.183907 -0.01365,-16.767104 0.03366,-33.534271 -0.02738,-50.301322 -6.753249,0.01269 -13.506492,-0.01171 -20.259744,-0.001 z" />
  <path
     id="path3328"
     style="fill:#ffffff;stroke-width:0.150119;paint-order:stroke fill markers"
     d="m 195.50073,23.837304 c -2.37731,0.0051 -4.7546,0.01627 -7.13187,0.03101 v 77.913066 c 9.16815,0.0644 18.33653,0.0118 27.50478,0.03 0.06,-22.709407 0.0123,-45.418904 0.0264,-68.128348 -0.0118,-3.281553 0.0336,-6.563455 -0.0332,-9.84467 -6.78873,0.01269 -13.57746,-0.01171 -20.36619,-0.001 z" />
  <path
     id="path3564"
     style="fill:#ffffff;stroke-width:0.150119;paint-order:stroke fill markers"
     d="m 235.2337,1.9202962 c -2.36112,0.00456 -4.72221,0.01572 -7.08329,0.030489 0.008,27.5566298 2e-4,55.1132638 0.0212,82.6698878 6.29155,5.722138 12.57134,11.456445 18.87016,17.170527 10.9368,-0.0101 21.87367,0.0475 32.81041,-0.009 -0.018,-8.316456 0.0342,-16.633049 -0.03,-24.949384 -7.85773,-0.0557 -15.71741,0.104817 -23.57368,-0.09709 -0.25321,-0.03022 -0.62722,-0.154715 -0.61761,-0.464116 0.10033,-0.343733 0.0315,-0.709906 0.0517,-1.064532 V 49.188511 c 0.67066,-0.289041 1.41758,-0.12796 2.12368,-0.153855 0.43645,-0.02269 0.87171,-0.05139 1.30957,-0.04243 6.91197,-0.06102 13.82442,0.02069 20.73634,-0.05435 -0.018,-8.365889 0.0342,-16.731919 -0.03,-25.097692 -7.07231,-0.04513 -14.14526,0.06508 -21.21713,-0.05175 -0.88141,-0.01677 -1.76538,-0.02947 -2.64498,-0.05833 -0.22415,-0.02664 -0.392,-0.2628 -0.2868,-0.476456 0.0482,-0.353951 3.7e-4,-0.721259 0.0106,-1.080495 -0.0788,-6.750835 -0.10223,-13.5023765 -0.23128,-20.2525701 -6.73964,0.013049 -13.47928,-0.011006 -20.21892,-5.168e-4 z" />
  <path
     id="path4506"
     style="fill:#ffffff;stroke-width:0.10615;paint-order:stroke fill markers"
     d="m 326.6214,23.805265 c -3.54139,0.0025 -7.08276,0.0055 -10.62416,0.0078 -6.35381,5.784863 -12.72085,11.555542 -19.0655,17.351912 0.003,14.456999 -0.01,28.914002 0.007,43.370996 6.27663,5.7271 12.5477,11.459935 18.8314,17.178797 14.21267,0.16021 28.42649,0.12455 42.63977,0.16227 0.0684,-7.95315 0.009,-15.906758 0.0323,-23.859934 -0.003,-0.414769 -0.0372,-0.828358 -0.0582,-1.242415 -11.15917,-2e-6 -22.31834,0 -33.47754,0 -0.32642,-0.227862 -0.43082,-0.656905 -0.33097,-1.029131 0.007,-8.836284 9.5e-4,-17.673595 0.003,-26.510273 0.22797,-0.325832 0.65688,-0.431126 1.02913,-0.330981 10.93366,0.0066 21.86834,9.45e-4 32.8024,0.0028 0.0685,-7.952798 0.009,-15.906062 0.0323,-23.858893 -0.003,-0.414769 -0.0372,-0.828357 -0.0582,-1.242416 -10.58762,-3.67e-4 -21.17526,-0.0015 -31.76291,-5.17e-4 z" />
  <path
     id="path6129"
     style="fill:#ffffff;stroke-width:0.150119;paint-order:stroke fill markers"
     d="m 382.62366,1.9202962 c -2.40228,0.00459 -4.80454,0.015608 -7.2068,0.030489 V 101.78138 c 9.26772,0.0645 18.53568,0.0118 27.80348,0.03 0.095,-16.992636 -0.0565,-33.985894 0.0982,-50.978288 0.0846,-0.565618 -0.0528,-1.145828 0.0806,-1.705321 2.15374,-0.28234 4.32925,-0.07456 6.49253,-0.154099 6.23549,-0.0081 12.47095,-0.0041 18.70644,-0.0045 0.32952,0.963165 0.1246,1.993979 0.17955,2.988148 0.0609,0.893051 0.0264,1.790071 0.0445,2.684944 0.0891,15.722926 -0.0131,31.4462 0.0654,47.169166 9.16792,-0.0181 18.33595,0.0344 27.50376,-0.03 -0.004,-20.222536 0.009,-40.445079 -0.008,-60.667614 C 450.05676,35.3568 443.74139,29.587812 437.40774,23.838903 h -33.94212 c -0.27199,-0.607765 -0.14475,-1.288233 -0.1506,-1.928453 0.006,-0.458824 -0.0632,-0.913622 -0.0438,-1.37303 -0.0565,-6.205388 0.0209,-12.4112452 -0.0526,-18.6165591 -6.86487,0.013046 -13.72973,-0.011007 -20.59461,-5.168e-4 z" />
  <path
     style="fill:#6441a5;fill-opacity:1;stroke-width:0.264583"
     d="m 37.41675,120.23187 -9.50321,-8.621 -5.42396,-5.36299 L 17.06562,100.8849 9.65729,94.199404 2.24895,87.513914 1.12448,86.370674 0,85.227434 V 43.125894 1.02434 L 0.27389,0.51257 0.54778,8e-4 H 15.875 31.20221 L 31.4761,0.51257 31.75,1.02434 v 0.87865 0.87865 l 9.59248,9.58979 9.59249,9.589784 h 2.12855 2.12856 l 0.3175,0.3175 0.3175,0.3175 v 1.07359 1.07359 l 6.48229,6.47824 6.48229,6.47824 v -7.28129 -7.28129 l 0.41188,-0.58804 0.41188,-0.58804 h 15.14562 15.14562 l 0.3175,0.3175 0.3175,0.3175 v 1.07524 1.07524 l 3.57188,3.56452 3.57187,3.56453 v -4.63976 -4.63977 l 0.3175,-0.3175 0.3175,-0.3175 h 15.14173 15.14172 l 0.41578,0.41578 0.41577,0.41577 v 1.10926 1.10925 l 3.57188,3.56453 3.57187,3.56452 v -4.77205 -4.77206 l 0.3175,-0.3175 0.3175,-0.3175 h 15.10771 15.10771 l 0.3175,0.3175 0.3175,0.3175 v 1.07477 1.07476 l 4.10104,4.09464 4.10104,4.09464 v -4.97513 -4.97513 l 0.27389,-0.51177 0.27389,-0.51178 h 4.15375 4.15374 l -3.16673,-3.175 -3.16673,-3.175004 h -0.98701 -0.98702 l -0.27389,-0.51177 -0.27389,-0.51177 V 7.806 1.02434 L 186.54055,0.51257 186.81444,8e-4 h 15.18534 15.18533 l 0.41577,0.41577 0.41578,0.41577 v 1.10889 1.10889 l 3.95257,3.94599 3.95258,3.94599 0.0823,-5.21615 0.0823,-5.21614 0.39688,-0.25046 0.39687,-0.25045 15.09448,-0.004 15.09448,-0.004 0.3175,0.3175 0.3175,0.3175 v 1.07292 1.07292 l 9.59249,9.58979 9.59247,9.589794 h 2.16257 2.16257 l 0.41579,0.41577 0.41577,0.41577 v 1.10742 1.10742 l 7.0776,7.05415 7.07761,7.05416 9.39271,-8.57381 9.3927,-8.57381 22.40844,-0.004 22.40844,-0.004 0.41187,0.58804 0.41188,0.58803 v 0.93534 0.93535 l 6.48229,6.47824 6.48229,6.47824 V 19.299334 0.635 L 373.90911,0.3175 374.22661,0 h 15.10775 15.10771 l 0.3175,0.3175 0.3175,0.3175 v 1.07292 1.07292 l 9.59249,9.58979 9.59247,9.589784 h 7.04953 7.04953 l 10.08092,9.16264 10.08089,9.16264 v 0.95137 0.95137 l 12.43542,12.4536 12.43542,12.4536 v 30.87822 30.878216 H 469.04112 454.68853 L 442.3182,116.48386 429.9479,104.11564 v 12.36822 12.36821 h -14.35206 -14.35203 l -8.00526,-8.00201 -8.00523,-8.00202 v 8.00202 8.00201 h -21.70173 -21.70176 l -1.11856,-1.00833 -1.11858,-1.00833 -7.40833,-6.71533 -7.40833,-6.71533 -6.23406,-6.10082 -6.23403,-6.10082 -8.63992,-7.805196 -8.63992,-7.80521 -0.009,-4.82864 -0.009,-4.82864 h -6.2177 -6.21771 v 1.25786 1.25786 l 12.03854,12.03635 12.03854,12.036356 v 13.16411 13.16411 h -16.79183 -16.79183 l -1.0014,-0.85691 -1.00139,-0.85692 -9.92188,-9.04067 -9.92187,-9.04068 -4.09784,-4.12533 -4.09784,-4.12532 h -0.20164 -0.20164 v 14.02292 14.02291 h -14.35549 -14.35548 l -7.14007,-7.14375 -7.14008,-7.14375 h -0.21584 -0.21584 l -7.85579,7.14339 -7.85579,7.14338 -43.39006,3.7e-4 -43.39007,3.6e-4 -8.00524,-8.00202 -8.00525,-8.00201 v 8.00201 8.00202 H 63.80864 46.91966 Z M 53.44583,89.297664 V 77.259134 H 41.54889 29.65195 l -0.2739,-0.51177 -0.27389,-0.51177 v -13.39625 -13.39625 l 0.27389,-0.51177 0.2739,-0.51177 H 41.54889 53.44583 V 36.381004 24.342464 H 41.54889 29.65195 l -0.2739,-0.51177 -0.27389,-0.51177 V 12.85048 2.38205 H 15.875 2.64583 v 41.005114 41.0051 l 9.31218,8.47197 9.31218,8.471976 h 16.08782 16.08782 z m 112.85612,3.52076 9.38138,-8.51779 v -29.97908 -29.97909 h -13.36146 -13.36146 v 26.14084 26.14083 l -0.3175,0.3175 -0.3175,0.3175 h -5.49403 -5.49402 l -0.27389,-0.51177 -0.27389,-0.51177 v -25.94656 -25.94657 h -13.22537 -13.22537 l -0.0699,26.20344 -0.07,26.20344 -0.39687,0.25084 -0.39688,0.25085 -5.34281,0.004 -5.34281,0.004 -0.41188,-0.58804 -0.41187,-0.58803 v -25.8702 -25.8703 H 84.66665 71.43749 v 38.49688 38.496866 h 42.74153 42.74154 z m 49.06888,-29.97908 v -38.49688 h -13.22917 -13.22917 v 38.49688 38.496866 h 13.22917 13.22917 z m 64.02916,26.45832 v -12.03853 l -11.70781,-0.004 -11.70781,-0.004 -0.39688,-0.25088 -0.39687,-0.25089 v -13.90992 -13.90993 l 0.39687,-0.25088 0.39688,-0.25088 11.70781,-0.004 11.70781,-0.004 v -12.03875 -12.03854 l -11.70781,-0.004 -11.70781,-0.004 -0.39688,-0.25071 -0.39687,-0.25072 -0.0748,-10.725444 -0.0748,-10.72544 H 241.82046 228.5999 v 40.987124 40.98711 l 9.32656,8.48506 9.32657,8.485056 16.07343,0.005 16.07344,0.005 V 89.297854 Z m 78.58125,0 V 77.259134 H 341.3654 324.74957 l -0.3175,-0.3175 -0.3175,-0.3175 v -13.78479 -13.78479 l 0.3175,-0.3175 0.3175,-0.3175 h 16.61583 16.61584 v -12.03855 -12.03854 h -20.91942 -20.91944 l -9.37535,8.53075 -9.37538,8.53075 v 21.43893 21.43891 l 9.32657,8.5143 9.32656,8.514296 20.96823,0.0129 20.96823,0.0129 z m 44.71458,-14.10228 v -26.14083 l 0.3175,-0.3175 0.3175,-0.3175 h 12.77006 12.77006 l 0.2739,0.51177 0.27389,0.51177 v 25.94657 25.946546 h 13.22917 13.22917 V 71.323934 41.311644 l -9.31474,-8.48459 -9.31476,-8.48459 h -16.95836 -16.95839 l -0.3175,-0.3175 -0.3175,-0.3175 V 13.04475 2.38205 H 389.33436 375.9729 v 49.477084 49.477076 h 13.36146 13.36146 z m -29.10417,8.14916 v -7.40832 h -6.48229 -6.48229 v 0.9902 0.9902 l 6.41411,6.41812 6.41413,6.41813 h 0.0682 0.0682 z M 68.79166,83.212254 v -7.27603 h -6.08541 -6.08542 v 1.25466 1.25465 l 6.01711,6.02138 6.01711,6.02138 h 0.0683 0.0683 z M 215.37083,7.806 V 2.38205 H 202.14166 188.91249 V 7.806 13.22996 h 13.22917 13.22917 z"
     id="path928" />
  <metadata
     id="metadata2473">
    <rdf:RDF>
      <cc:Work
         rdf:about="">
        <dc:title>C:\mystuff\Node</dc:title>
      </cc:Work>
    </rdf:RDF>
  </metadata>
  <path
     style="fill:#ffffff;stroke-width:0.150119;paint-order:stroke fill markers"
     d="m 188.8981,2.47696 c 0.0177,3.5579072 -0.0352,7.1450967 0.0264,10.684822 8.81213,-0.01759 17.65339,0.03519 26.4473,-0.02639 -0.0177,-3.5579071 0.0352,-7.1450966 -0.0264,-10.6848218 -8.81209,0.017579 -17.65343,-0.035166 -26.4473,0.026388 z"
     id="path6090" />
</svg>
